<svg width="420" height="92" viewBox="0 0 420 92" fill="none" xmlns="http://www.w3.org/2000/svg">
  <rect width="420" height="92" rx="14" fill="#ffffff" fill-opacity="0.0"/>
  <g transform="translate(10 8)">
    <circle cx="42" cy="38" r="34" fill="#F4B400"/>
    <path d="M18 56c0-20 15-36 34-36h20c9 0 16 7 16 16v20c0 9-7 16-16 16H52c-19 0-34-16-34-36Z" fill="#0A4A58" opacity="0.15"/>
    <path d="M18 56c0-18 14-34 31-34h16c8 0 15 7 15 15v15c0 8-7 15-15 15H49c-17 0-31-15-31-34Z" fill="#ffffff"/>
    <rect x="30" y="36" width="34" height="18" rx="4" fill="#0A4A58" opacity="0.9"/>
    <rect x="24" y="56" width="48" height="8" rx="4" fill="#0A4A58" opacity="0.9"/>
    <circle cx="36" cy="66" r="5" fill="#0B0F14"/>
    <circle cx="62" cy="66" r="5" fill="#0B0F14"/>
    <text x="95" y="50" font-family="Arial, Helvetica, sans-serif" font-size="34" font-weight="800" fill="#0A4A58">Ads</text>
    <text x="165" y="50" font-family="Arial, Helvetica, sans-serif" font-size="34" font-weight="800" fill="#F4B400">in</text>
    <text x="205" y="50" font-family="Arial, Helvetica, sans-serif" font-size="34" font-weight="800" fill="#0A4A58">motion</text>
  </g>
</svg>

